<?xml version="1.0" standalone="no"?>
<!DOCTYPE svg PUBLIC "-//W3C//DTD SVG 20010904//EN"
 "http://www.w3.org/TR/2001/REC-SVG-20010904/DTD/svg10.dtd">
<svg version="1.0" xmlns="http://www.w3.org/2000/svg"
 width="1278.000000pt" height="981.000000pt" viewBox="0 0 1278.000000 981.000000"
 preserveAspectRatio="xMidYMid meet">

<g transform="translate(0.000000,981.000000) scale(0.100000,-0.100000)"
fill="#000000" stroke="none">
<path d="M5545 9310 c-344 -18 -736 -89 -1076 -195 -640 -201 -1275 -616
-1715 -1120 -142 -163 -337 -431 -412 -567 l-41 -74 -62 -12 c-33 -6 -104 -31
-157 -56 -54 -25 -116 -52 -139 -60 -42 -15 -43 -15 -43 8 0 17 11 27 47 44
100 45 222 194 264 320 33 99 30 180 -10 264 -84 176 -238 266 -382 225 -101
-30 -176 -86 -496 -371 -26 -24 -56 -65 -75 -105 l-31 -66 -14 42 c-8 23 -40
71 -71 108 -143 169 -364 208 -508 90 -76 -63 -167 -218 -200 -344 -26 -100
-33 -255 -18 -407 7 -77 13 -178 14 -225 0 -151 23 -250 85 -374 31 -62 55
-123 55 -140 -1 -51 -36 -195 -109 -443 -105 -356 -113 -396 -114 -547 -1 -71
2 -143 6 -158 7 -25 4 -29 -27 -42 -89 -37 -142 -174 -102 -268 7 -18 34 -52
61 -76 91 -83 388 -203 578 -232 92 -14 281 -7 347 14 63 19 127 62 150 100
22 35 26 97 9 114 -19 19 85 113 172 156 71 35 249 102 253 95 2 -2 10 -91 19
-198 72 -844 413 -1704 884 -2230 229 -255 562 -538 848 -719 377 -240 927
-428 1465 -502 224 -30 545 -46 778 -37 886 33 1813 358 2408 844 248 203 571
542 761 798 327 441 572 1051 684 1701 54 316 82 797 61 1037 -7 77 -7 78 19
88 14 6 36 29 49 52 20 35 22 49 17 107 -4 36 -23 120 -42 186 -55 188 -87
413 -66 468 23 61 33 167 21 213 -19 66 -67 104 -131 104 -27 0 -62 -6 -77
-14 l-28 -14 -38 101 c-62 163 -218 464 -333 645 -340 531 -819 962 -1398
1258 -593 303 -1365 452 -2140 414z m200 -359 c133 4 414 -14 440 -28 11 -6
71 -13 133 -17 108 -7 257 -33 318 -56 16 -6 39 -9 51 -5 16 4 47 -7 97 -34
47 -25 82 -37 97 -34 15 3 33 -3 48 -16 16 -14 38 -21 65 -21 23 0 50 -6 62
-13 75 -44 147 -77 166 -77 13 0 50 -12 83 -26 33 -14 69 -28 80 -31 11 -4 23
-12 28 -19 4 -7 28 -20 55 -29 26 -8 58 -22 72 -31 l25 -15 -24 7 c-14 3 -124
6 -245 6 -246 -1 -310 -11 -370 -57 -47 -36 -86 -119 -86 -184 0 -40 5 -52 33
-78 29 -28 53 -36 252 -82 121 -27 299 -66 395 -86 242 -50 325 -72 383 -102
54 -27 84 -27 150 1 30 12 43 26 61 67 l23 52 52 -51 c28 -28 64 -53 79 -57
31 -7 84 -44 63 -45 -7 0 18 -33 56 -74 92 -96 152 -178 179 -243 11 -29 30
-63 40 -75 14 -15 15 -22 7 -25 -15 -5 -18 -53 -4 -53 5 0 14 7 21 15 7 8 18
15 25 15 16 0 73 -72 81 -104 6 -24 9 -25 47 -19 l40 6 -6 -32 c-4 -18 -3 -30
2 -27 4 3 17 -1 28 -9 23 -16 21 -55 -3 -55 -16 0 -18 -9 -5 -29 11 -17 34 -4
27 15 -3 7 -1 16 4 19 9 5 54 -57 91 -126 8 -14 32 -52 54 -85 21 -32 45 -81
52 -108 7 -27 20 -54 30 -62 17 -12 17 -13 -2 -9 -169 37 -490 128 -510 145
-7 6 -16 27 -20 48 -10 52 -6 173 6 188 7 9 4 24 -11 50 -11 21 -20 49 -20 61
0 27 -30 32 -50 8 -19 -23 -70 -17 -129 15 -30 17 -60 30 -66 30 -7 0 -20 12
-30 26 -26 40 -96 104 -137 125 -20 10 -54 30 -75 45 -23 15 -47 24 -61 21
-19 -4 -24 1 -29 24 -6 30 -17 37 -28 18 -5 -7 -13 -5 -25 6 -10 9 -24 14 -30
10 -7 -4 -16 -2 -20 5 -4 7 -20 13 -36 14 -16 2 -41 8 -56 14 -29 12 -98 -1
-98 -18 0 -6 -7 -10 -15 -10 -8 0 -15 6 -15 14 0 22 -21 31 -34 15 -9 -11 -41
-14 -150 -14 l-138 0 -19 -37 c-12 -24 -27 -38 -38 -38 -19 0 -81 -54 -81 -70
0 -5 -13 -17 -30 -27 -16 -9 -30 -24 -30 -33 1 -30 55 -95 88 -105 21 -6 31
-14 27 -23 -3 -8 11 -20 40 -32 31 -13 43 -24 39 -34 -6 -16 23 -36 54 -36 11
0 53 -28 94 -61 73 -62 121 -89 155 -89 10 0 29 -7 42 -16 22 -16 20 -17 -91
-46 -171 -43 -323 -98 -648 -230 -351 -143 -471 -188 -509 -188 -15 0 -58 11
-97 23 l-69 24 -8 77 c-7 58 -16 91 -41 135 -42 74 -86 170 -86 187 0 8 -9 22
-21 32 -11 9 -27 33 -35 51 -8 19 -21 42 -29 50 -8 9 -30 34 -49 56 -26 29
-38 36 -44 27 -6 -8 -31 10 -88 64 -86 83 -113 98 -207 114 -34 7 -70 16 -79
21 -15 8 -19 5 -25 -21 -7 -37 -27 -48 -51 -28 -31 27 -40 28 -57 12 -16 -17
-28 -19 -125 -22 -27 -1 -50 -6 -50 -12 0 -5 5 -10 10 -10 6 0 24 -9 39 -21
16 -11 39 -19 51 -17 29 4 84 -47 77 -72 -6 -23 8 -45 21 -36 8 4 8 15 2 31
-5 14 -7 32 -3 40 10 26 28 10 29 -26 2 -64 4 -69 19 -69 9 0 18 7 20 15 3 8
7 22 10 31 9 27 19 6 25 -49 5 -48 7 -52 33 -55 15 -2 27 -9 27 -17 0 -7 24
-38 53 -69 114 -123 227 -261 227 -279 0 -4 -30 6 -67 20 -351 134 -560 194
-776 222 -229 31 -498 7 -785 -70 -63 -17 -116 -28 -119 -26 -2 3 9 16 26 28
19 14 29 29 26 37 -4 11 1 13 22 7 16 -4 25 -3 21 1 -4 4 1 19 12 34 11 16 20
35 20 43 0 26 -18 29 -34 6 -15 -21 -15 -21 -29 14 l-15 35 -39 -13 c-30 -10
-43 -22 -60 -59 -13 -25 -28 -46 -34 -46 -7 0 -5 -7 5 -19 16 -17 15 -19 -14
-24 -24 -5 -30 -12 -30 -31 0 -13 5 -26 12 -28 6 -2 8 -10 4 -16 -11 -19 -26
-14 -26 8 0 11 -2 20 -5 20 -7 0 -79 -34 -85 -40 -20 -22 -64 -49 -72 -44 -5
3 -14 1 -21 -4 -13 -11 -128 -42 -275 -73 -72 -16 -148 -23 -296 -26 -192 -5
-199 -5 -191 13 17 41 22 97 13 139 -13 62 -74 126 -205 215 -59 40 -144 97
-187 127 -44 29 -90 56 -103 59 -24 6 -30 19 -13 29 6 4 16 21 24 38 7 18 57
90 110 160 53 70 96 132 96 137 0 6 30 40 66 77 36 37 75 81 86 97 44 63 195
202 288 266 19 13 67 53 105 89 39 37 95 80 126 96 31 17 103 62 160 100 128
88 119 82 272 156 70 34 127 65 127 70 0 5 7 9 15 9 28 0 200 63 210 76 5 8
45 23 87 33 42 11 95 29 117 39 39 19 65 26 196 52 33 7 88 25 121 41 41 19
76 28 105 27 78 -3 220 15 234 28 23 23 236 42 425 38 96 -2 189 -3 205 -3z
m-3870 -930 c110 -50 174 -218 131 -345 -37 -108 -156 -241 -260 -290 -40 -19
-71 -26 -115 -26 -34 0 -61 -4 -61 -10 0 -5 3 -10 8 -10 4 0 19 -11 33 -24 14
-13 35 -29 47 -35 34 -18 27 -53 -30 -164 -69 -131 -108 -174 -173 -191 -70
-17 -70 -38 -1 -67 46 -19 58 -28 67 -57 13 -39 8 -164 -10 -227 -6 -22 -16
-66 -22 -98 -7 -39 -20 -69 -38 -90 l-28 -30 -32 22 c-17 12 -31 31 -31 42 0
22 -24 73 -79 162 -52 88 -70 138 -59 168 5 13 8 92 6 174 -4 132 -7 157 -29
210 l-25 60 19 44 c10 24 23 84 27 135 10 98 40 212 71 262 10 17 47 53 81 80
35 26 99 82 143 124 106 100 160 142 220 173 60 31 87 33 140 8z m-1036 -269
c112 -55 172 -198 150 -357 -11 -80 -53 -165 -100 -200 -125 -94 -134 -113
-67 -140 23 -9 65 -19 92 -22 100 -11 112 -36 76 -153 -11 -36 -27 -94 -36
-130 -16 -71 -32 -94 -83 -127 -21 -13 -35 -30 -36 -43 -2 -22 0 -22 85 -17
48 3 91 2 96 -1 23 -16 74 -155 89 -237 13 -75 15 -144 9 -420 -3 -204 -11
-366 -20 -425 -23 -152 -76 -330 -104 -350 -4 -3 -9 -10 -11 -16 -2 -7 -38
-39 -79 -73 l-75 -61 -80 0 c-75 0 -85 3 -154 41 -79 43 -81 44 -138 129 -34
50 -37 61 -44 155 -7 100 -2 143 35 300 39 165 99 383 136 494 41 121 51 191
34 243 -3 11 -21 41 -40 65 -63 83 -94 181 -94 301 0 37 -7 117 -16 177 -30
219 -32 299 -14 460 17 147 19 154 65 244 55 106 84 144 129 169 68 37 110 36
195 -6z m1588 -468 c30 -8 87 -38 130 -69 43 -30 103 -72 133 -92 183 -124
240 -180 240 -235 0 -84 -108 -218 -193 -239 -104 -25 -237 8 -312 79 -37 35
-48 52 -82 122 -23 46 -28 51 -31 32 -3 -22 -5 -22 -20 -8 -16 14 -22 9 -67
-51 -63 -84 -91 -105 -152 -110 -37 -4 -60 0 -91 16 -50 25 -66 27 -58 4 4 -9
1 -20 -6 -24 -7 -5 -14 -19 -14 -31 -1 -13 -13 -60 -26 -105 -31 -104 -87
-175 -131 -168 -60 10 -65 40 -48 270 3 50 2 113 -2 142 l-9 51 64 64 c50 49
73 82 103 149 39 86 40 87 91 103 28 9 80 31 115 50 143 75 234 87 366 50z
m15 -821 l166 -38 -48 -51 c-49 -52 -80 -124 -80 -186 0 -23 -8 -33 -47 -56
-75 -43 -123 -94 -123 -131 0 -29 -2 -31 -27 -25 -85 19 -183 47 -183 53 0 3
5 24 9 46 5 22 12 63 15 90 3 28 14 84 26 125 11 41 27 102 35 135 9 33 18 66
20 74 6 16 4 16 237 -36z m436 -88 c79 -32 94 -117 47 -263 -20 -62 -25 -98
-24 -160 2 -116 -14 -144 -116 -199 -98 -53 -175 -131 -230 -232 -73 -135
-265 -269 -412 -287 -26 -4 -73 -13 -103 -20 -71 -18 -124 -18 -140 1 -7 8
-18 15 -25 15 -22 0 -54 62 -69 133 -7 37 -18 73 -24 80 -5 6 -13 28 -17 47
-4 19 -22 64 -40 100 -18 36 -35 77 -39 93 -10 43 34 124 95 172 28 22 80 68
115 102 61 60 65 62 91 50 16 -6 46 -29 67 -50 24 -24 42 -35 48 -29 6 6 21 6
36 2 39 -12 113 -31 145 -37 17 -3 33 -15 39 -29 18 -39 25 -28 21 34 -2 34 1
67 9 82 24 45 127 99 136 71 7 -21 50 -66 56 -60 4 3 -3 45 -14 93 -13 55 -19
100 -14 119 31 146 214 233 362 172z m317 -53 c22 -9 61 -32 87 -51 60 -46 83
-104 142 -356 25 -104 61 -234 81 -288 138 -384 533 -783 923 -931 171 -66
269 -81 507 -80 176 0 226 4 307 22 294 65 522 194 741 419 147 151 284 365
337 525 l25 76 80 -60 c74 -56 84 -69 130 -157 139 -263 388 -507 627 -614
119 -53 260 -92 371 -102 131 -12 125 -16 -148 -80 -82 -20 -166 -40 -185 -45
-125 -35 -338 -63 -645 -84 -696 -49 -934 -49 -1440 -2 -88 9 -176 15 -195 15
l-35 -1 34 -14 c108 -48 411 -73 731 -63 184 6 682 11 875 8 357 -5 744 9 824
31 34 9 188 4 178 -6 -2 -2 -61 -19 -132 -38 -132 -34 -318 -60 -520 -71 -107
-6 -470 -40 -530 -50 -16 -2 -264 -5 -550 -6 -535 -1 -550 0 -885 46 -96 13
-258 33 -360 45 -273 31 -772 101 -859 121 -25 6 -111 24 -191 39 -80 16 -172
35 -205 43 -94 23 -153 21 -198 -9 -38 -25 -97 -97 -97 -119 0 -7 -20 -33 -45
-58 -42 -43 -45 -49 -45 -100 0 -39 4 -56 15 -60 8 -4 17 -1 21 4 3 6 17 8 29
5 13 -3 27 -1 31 5 5 8 10 6 16 -5 5 -9 13 -14 19 -11 5 4 9 1 9 -4 0 -23 39
-8 125 47 50 32 102 62 117 65 32 8 100 -23 227 -103 42 -26 95 -57 118 -69
24 -11 89 -62 145 -112 57 -50 121 -103 143 -117 22 -15 61 -45 86 -68 25 -23
81 -62 125 -88 119 -71 157 -100 298 -224 71 -62 142 -120 159 -128 16 -9 130
-82 251 -163 l222 -148 196 -66 c260 -89 369 -117 448 -117 36 0 147 -7 245
-16 375 -33 358 -33 585 11 81 16 147 28 278 50 46 8 100 22 120 33 21 10 134
67 252 126 l214 108 211 212 c116 116 247 258 290 315 186 243 309 391 324
391 38 1 90 43 151 121 68 87 123 131 242 194 l67 35 -10 -32 c-13 -47 -12
-48 20 -37 15 6 34 22 40 36 l12 26 29 -28 c17 -16 32 -37 36 -47 3 -10 11
-18 17 -18 7 0 28 -20 48 -45 l36 -45 36 28 c24 18 34 32 30 42 -3 8 -14 37
-24 65 -10 27 -28 59 -42 70 -36 30 -54 63 -69 130 -11 48 -12 68 -2 100 20
65 18 71 -29 85 -36 9 -53 9 -93 -2 -56 -16 -137 -15 -142 1 -2 6 -17 11 -33
11 -34 0 -36 6 -11 33 16 20 16 20 -3 13 -24 -10 -105 -18 -105 -12 0 3 21 20
47 37 135 91 331 296 444 464 128 188 191 346 255 638 20 93 44 188 53 213
l17 45 17 -33 c9 -18 21 -71 26 -118 12 -111 11 -95 15 -325 3 -178 6 -261 21
-465 2 -31 9 -77 15 -103 8 -40 12 -123 11 -296 0 -18 -5 -79 -12 -135 -6 -55
-15 -150 -19 -211 -5 -60 -19 -180 -33 -265 -22 -145 -27 -160 -65 -220 -22
-36 -45 -83 -51 -105 -15 -53 -21 -62 -132 -188 -25 -29 -61 -80 -80 -114 -18
-35 -37 -63 -40 -63 -4 0 -9 18 -13 40 -3 23 -10 39 -15 36 -4 -3 -16 1 -27 8
-15 12 -22 12 -40 -1 -22 -14 -23 -13 -30 21 -8 43 -20 45 -89 11 -59 -28 -85
-48 -85 -63 0 -6 -13 -18 -30 -27 -38 -20 -80 -92 -80 -138 0 -21 4 -37 9 -37
17 0 22 -55 9 -95 -8 -26 -23 -44 -40 -53 -30 -14 -68 -62 -68 -85 0 -8 -7
-20 -15 -27 -8 -7 -25 -30 -37 -51 -12 -22 -37 -48 -55 -59 -18 -11 -33 -26
-33 -34 0 -8 -37 -54 -82 -103 -66 -71 -96 -95 -157 -126 -42 -20 -94 -48
-116 -62 -48 -30 -77 -33 -44 -5 28 23 13 27 -19 4 -12 -8 -20 -20 -17 -25 4
-5 3 -9 -2 -9 -4 0 -19 -3 -33 -7 l-24 -6 23 29 c23 29 23 29 2 32 -12 2 -21
7 -21 11 0 10 71 77 96 90 12 6 36 35 53 66 20 35 46 64 72 81 29 18 38 28 29
34 -10 6 -9 10 2 16 14 9 170 218 170 228 -1 3 10 17 23 33 175 203 213 258
236 332 12 42 31 89 43 104 17 23 18 30 7 37 -11 6 -9 17 12 53 l27 46 -32 15
c-17 9 -37 16 -45 16 -7 0 -13 6 -13 14 0 31 -26 20 -68 -28 -25 -28 -59 -59
-77 -68 -18 -9 -40 -30 -50 -45 -23 -37 -295 -303 -309 -303 -6 0 -31 -30 -56
-66 -25 -36 -61 -79 -80 -96 -42 -35 -88 -76 -155 -139 -28 -25 -55 -44 -61
-42 -12 4 -64 -44 -64 -59 0 -18 -114 -129 -126 -124 -8 3 -26 -17 -44 -49
-33 -57 -44 -65 -54 -39 -3 8 -2 13 3 9 5 -3 4 8 -2 24 -15 40 -23 32 -30 -30
-7 -59 -22 -82 -32 -51 -8 28 -35 17 -35 -13 0 -30 -90 -124 -139 -146 -20 -9
-54 -34 -77 -55 -63 -61 -95 -85 -144 -106 -25 -12 -48 -25 -51 -30 -14 -22
-199 -90 -359 -131 -172 -44 -177 -45 -275 -37 -55 5 -192 11 -305 15 -238 8
-292 20 -608 133 -175 62 -188 68 -295 148 -132 98 -215 144 -317 174 -80 24
-104 38 -190 110 -30 26 -94 76 -141 112 -84 63 -87 65 -97 44 -26 -51 -24
-64 25 -150 44 -77 58 -93 133 -148 47 -34 175 -120 284 -191 l199 -128 191
-64 c105 -35 215 -66 244 -70 47 -6 56 -11 79 -46 29 -44 29 -44 140 -60 81
-12 83 -13 98 -48 9 -20 20 -43 25 -53 7 -12 3 -20 -14 -31 -13 -9 -27 -12
-32 -7 -5 5 -27 12 -49 16 -36 6 -39 5 -27 -9 11 -13 10 -17 -5 -25 -10 -6
-35 -13 -56 -17 -20 -4 -37 -10 -37 -14 0 -3 -22 -4 -49 -3 -42 3 -51 0 -65
-20 -14 -20 -29 -24 -124 -34 -86 -9 -112 -8 -134 3 -29 14 -46 13 -90 -5 -16
-6 -58 -9 -105 -5 -115 8 -145 5 -175 -17 -31 -23 -97 -27 -116 -7 -8 7 -43
12 -93 13 -46 0 -85 6 -91 12 -7 7 -26 12 -44 12 -45 0 -165 38 -189 60 -11
11 -34 18 -50 18 -40 -1 -103 26 -132 58 -15 16 -30 24 -40 20 -9 -4 -25 2
-37 13 -24 22 -140 85 -173 93 -13 3 -25 14 -29 25 -17 54 -41 68 -46 26 l-3
-28 -28 27 c-30 30 -43 34 -49 18 -2 -6 -41 26 -87 70 -46 44 -92 80 -101 80
-9 0 -41 15 -71 33 -30 17 -66 37 -81 44 -15 7 -34 26 -43 43 -8 16 -23 30
-31 30 -9 0 -28 12 -43 28 -15 15 -44 40 -64 56 -29 23 -37 36 -37 62 0 18 -4
34 -8 36 -7 3 -59 66 -175 213 -21 27 -43 68 -49 93 -6 24 -17 46 -24 49 -7 2
-16 19 -19 36 -25 131 -61 253 -76 262 -5 4 -9 14 -9 24 0 10 -11 39 -25 64
-23 41 -62 161 -70 212 -1 11 -8 34 -15 50 -7 17 -14 44 -16 60 -3 17 -8 41
-11 55 -4 14 -8 48 -8 75 -2 49 -20 109 -42 136 -12 16 -29 139 -25 187 3 38
-27 171 -42 188 -29 31 -53 62 -71 91 -11 18 -39 59 -62 92 -24 34 -43 66 -43
71 0 6 -13 38 -30 72 -17 33 -30 76 -30 97 0 23 -11 51 -30 80 -17 25 -29 49
-27 55 2 6 23 14 48 18 69 12 187 56 273 101 93 50 179 136 276 277 57 82 80
106 173 175 122 92 150 125 176 215 22 78 37 367 22 418 l-10 33 37 -7 c20 -4
55 -14 77 -22z m3235 -269 c0 -160 17 -317 44 -408 l15 -50 -55 60 c-30 33
-57 70 -60 83 -4 12 -1 71 5 130 6 59 11 153 11 209 0 110 5 133 26 133 11 0
14 -30 14 -157z m-4864 -507 c32 -32 34 -38 34 -99 0 -85 -13 -154 -51 -258
-27 -76 -36 -91 -74 -118 -46 -33 -115 -44 -115 -18 0 41 31 251 45 297 8 30
23 82 32 115 18 62 55 115 81 115 8 0 29 -15 48 -34z m-1171 -592 c152 -69
299 -128 410 -164 55 -18 126 -44 157 -59 47 -21 56 -29 51 -46 -10 -38 -45
-63 -110 -81 -58 -16 -75 -16 -157 -5 -188 27 -442 152 -493 243 -27 49 -6
158 31 158 6 0 56 -21 111 -46z m260 -92 c-7 -7 -192 80 -221 104 -18 16 17 2
98 -38 70 -34 125 -64 123 -66z m319 -83 c15 -13 -43 -9 -89 6 l-40 13 60 -5
c33 -3 64 -9 69 -14z m7111 -357 c-21 -123 -31 -149 -62 -157 -14 -3 -27 -4
-29 -2 -2 2 6 54 19 116 21 107 24 114 52 126 17 7 31 11 33 10 2 -2 -4 -43
-13 -93z m-4459 34 c1 -1 5 -25 9 -55 l7 -54 -31 22 c-17 12 -31 30 -31 39 0
9 -3 27 -6 40 -6 21 -4 22 22 16 16 -4 30 -7 30 -8z m338 -61 c77 -14 140 -26
141 -28 1 -1 10 -65 20 -143 19 -147 17 -174 -12 -211 l-18 -23 -140 120 c-76
65 -142 127 -146 137 -3 10 -10 56 -14 102 -7 78 -6 83 11 77 11 -3 82 -17
158 -31z m3849 -2 c-8 -21 -26 -74 -38 -118 -12 -44 -31 -98 -43 -120 -19 -38
-128 -154 -135 -144 -1 2 -13 27 -25 54 l-22 50 23 130 23 130 84 17 c47 9 96
21 110 27 39 15 40 14 23 -26z m-3313 -92 c107 -17 209 -32 225 -33 l30 -3 5
-130 c5 -116 3 -136 -16 -190 -31 -85 -36 -87 -184 -64 -196 30 -189 25 -237
132 -41 92 -63 189 -63 282 0 44 2 47 23 42 12 -3 110 -20 217 -36z m2910 29
c0 -5 -11 -62 -24 -125 -19 -87 -35 -135 -67 -193 -23 -42 -43 -78 -44 -80 -6
-8 -283 -38 -296 -31 -9 4 -24 38 -34 75 -16 60 -17 80 -7 182 6 63 13 116 15
118 2 2 72 11 155 19 84 9 183 22 220 30 86 17 82 17 82 5z m-541 -77 c0 -10
-6 -57 -12 -104 -12 -78 -18 -93 -72 -177 -48 -73 -67 -94 -95 -103 -20 -7
-113 -14 -212 -16 l-177 -5 -11 44 c-6 24 -18 64 -26 90 -14 44 -25 210 -14
221 6 6 339 47 445 54 44 3 82 7 84 9 2 2 24 4 48 4 35 0 43 -3 42 -17z
m-1839 -8 c74 -2 180 -9 235 -14 55 -6 133 -10 174 -11 l74 0 -7 -82 c-4 -46
-14 -128 -23 -183 -9 -55 -16 -106 -16 -113 0 -17 -20 -20 -183 -27 -113 -5
-158 -3 -229 11 -82 16 -94 22 -166 78 -42 34 -80 68 -84 76 -7 16 -35 221
-35 258 0 23 2 23 63 17 34 -3 123 -8 197 -10z m1061 -31 l126 -6 -21 -102
-21 -103 -76 -82 -76 -83 -73 -14 c-53 -10 -114 -12 -226 -7 -84 3 -157 9
-163 12 -14 9 -41 206 -41 305 l0 86 168 3 c92 2 192 2 222 0 30 -1 112 -5
181 -9z m1935 -128 c3 -8 -12 -37 -35 -65 -34 -43 -41 -48 -46 -32 -3 11 -12
22 -21 25 -22 8 -37 55 -23 72 16 19 118 19 125 0z m-258 -135 c29 -36 32 -46
32 -108 0 -63 -3 -72 -35 -112 -33 -41 -226 -224 -230 -219 -2 2 -6 59 -10
128 -4 69 -9 141 -11 160 -5 44 -24 90 -36 90 -18 0 4 21 45 42 35 18 162 54
203 57 6 1 25 -17 42 -38z m-437 -94 c78 -60 79 -61 65 -108 -7 -24 -16 -110
-20 -192 -4 -81 -11 -158 -16 -171 -11 -30 -40 -46 -249 -141 -122 -55 -178
-76 -188 -69 -11 7 -15 64 -18 304 l-5 295 49 33 c48 33 54 34 186 42 76 5
140 11 143 14 9 10 36 6 53 -7z m-2941 -7 c19 -5 88 -14 153 -19 115 -10 120
-11 157 -45 21 -19 48 -40 60 -46 19 -10 21 -17 16 -63 -3 -29 -8 -88 -11
-131 -3 -44 -7 -81 -8 -82 -9 -10 -192 124 -323 236 -86 74 -164 140 -173 147
-13 10 -6 12 39 13 30 0 71 -4 90 -10z m2446 -87 c27 -21 44 -45 48 -64 9 -46
7 -108 -3 -127 -5 -10 -15 -65 -21 -122 -6 -58 -20 -129 -31 -157 -64 -175
-54 -160 -117 -174 -207 -43 -252 -47 -364 -36 -103 10 -110 12 -123 37 -11
21 -13 83 -9 311 2 187 7 285 14 287 6 2 34 20 63 40 l52 35 167 2 c92 1 170
4 174 8 3 3 29 3 58 0 38 -5 62 -15 92 -40z m-1603 -4 c97 4 156 -14 210 -64
l48 -44 -3 -250 c-2 -137 -5 -252 -8 -255 -3 -3 -41 5 -85 18 -44 13 -129 36
-188 51 -94 24 -121 36 -201 89 -50 33 -121 79 -158 101 -78 46 -76 39 -51
189 l16 101 56 37 56 38 125 -7 c69 -3 151 -5 183 -4z m883 -34 l51 -40 11
-120 c15 -159 17 -264 5 -295 -5 -14 -22 -60 -38 -102 -15 -43 -33 -83 -41
-89 -19 -15 -79 -17 -254 -8 -120 6 -177 14 -254 36 l-98 27 7 276 c6 234 9
276 22 285 9 6 30 22 48 37 37 32 49 33 300 33 l190 0 51 -40z"/>
<path d="M4600 8525 c-85 -7 -230 -23 -322 -34 -92 -12 -170 -21 -172 -21 -3
0 -23 -22 -44 -49 l-39 -49 5 -108 c4 -96 9 -121 44 -214 22 -58 45 -108 50
-111 6 -4 36 -12 67 -19 53 -11 61 -10 141 19 81 29 152 44 600 126 349 64
521 104 550 128 39 32 46 108 17 189 -27 74 -82 118 -172 138 -88 19 -534 22
-725 5z"/>
<path d="M4962 7475 c-13 -29 -97 -68 -132 -61 -60 11 -182 -36 -157 -61 9 -8
156 27 163 39 3 4 32 8 64 8 51 0 61 3 78 25 12 15 18 34 15 45 -8 30 -19 32
-31 5z"/>
<path d="M5247 7479 c7 -7 15 -10 18 -7 3 3 -2 9 -12 12 -14 6 -15 5 -6 -5z"/>
<path d="M5340 7466 c0 -2 7 -9 15 -16 12 -10 15 -10 15 4 0 9 -7 16 -15 16
-8 0 -15 -2 -15 -4z"/>
<path d="M4675 7440 c3 -5 8 -10 11 -10 2 0 4 5 4 10 0 6 -5 10 -11 10 -5 0
-7 -4 -4 -10z"/>
<path d="M5124 7429 c-60 -17 -70 -59 -14 -59 35 0 60 23 53 50 -3 11 -6 20
-7 19 0 0 -15 -5 -32 -10z"/>
<path d="M4551 7340 c-13 -11 -29 -20 -36 -20 -19 0 -48 -37 -36 -45 12 -7 5
-52 -11 -72 -12 -15 7 -26 32 -18 19 6 22 15 24 80 1 29 12 42 43 50 40 10 58
26 41 36 -19 13 -31 10 -57 -11z"/>
<path d="M8430 7351 c0 -6 5 -13 10 -16 6 -3 10 1 10 9 0 9 -4 16 -10 16 -5 0
-10 -4 -10 -9z"/>
<path d="M4420 7301 c-15 -30 -50 -47 -61 -30 -5 9 -13 1 -25 -27 -10 -21 -20
-41 -21 -43 -1 -2 -9 2 -17 8 -11 10 -17 7 -30 -11 -18 -25 -7 -35 21 -19 16
8 19 5 21 -21 1 -17 -2 -35 -6 -42 -12 -15 -23 -98 -12 -91 5 3 11 23 15 46
14 84 95 193 95 127 0 -12 3 -18 7 -14 8 7 32 70 40 102 7 29 -13 40 -27 15z"/>
<path d="M5366 7294 c-8 -21 14 -50 24 -33 9 13 1 49 -10 49 -4 0 -11 -7 -14
-16z"/>
<path d="M3977 6994 c-3 -3 -3 -13 0 -21 5 -12 7 -12 14 -1 15 23 4 40 -14 22z"/>
<path d="M8070 3099 c-11 -19 -10 -20 9 -10 27 15 36 31 17 31 -8 0 -20 -9
-26 -21z"/>
<path d="M8021 3029 c-7 -12 -10 -23 -8 -26 3 -3 11 5 17 17 15 28 8 35 -9 9z"/>
<path d="M5590 2216 c0 -9 5 -16 10 -16 6 0 10 4 10 9 0 6 -4 13 -10 16 -5 3
-10 -1 -10 -9z"/>
<path d="M11240 4504 c-85 -15 -167 -57 -213 -109 -31 -35 -56 -102 -77 -207
-11 -56 -27 -124 -35 -152 -9 -31 -15 -92 -15 -162 0 -122 -14 -209 -54 -349
-23 -78 -25 -101 -20 -175 5 -72 1 -109 -24 -240 -17 -85 -36 -191 -42 -235
-19 -139 -14 -130 -83 -155 -144 -52 -210 -176 -237 -449 -20 -203 -7 -319 48
-428 25 -49 46 -73 98 -112 37 -28 82 -53 101 -57 27 -5 38 -15 55 -48 33 -65
76 -123 143 -195 l62 -66 6 -85 c4 -66 13 -101 38 -155 44 -97 60 -117 141
-174 60 -42 85 -53 162 -70 253 -54 296 -59 561 -66 l259 -6 72 31 c62 28 76
39 114 93 29 41 47 80 56 121 15 69 18 156 6 156 -4 0 -6 16 -4 36 3 27 -5 53
-34 110 -21 41 -42 74 -46 74 -4 0 -8 11 -8 24 0 23 4 24 73 27 64 4 82 9 147
47 65 37 81 52 122 115 41 63 48 82 58 157 11 80 11 89 -12 155 -22 63 -31 76
-94 128 -38 33 -86 66 -106 74 -52 21 -49 41 15 112 85 97 132 178 146 251 11
62 11 69 -16 142 -39 105 -131 209 -238 268 -75 41 -79 42 -293 68 l-217 27
-78 80 c-88 90 -119 140 -137 217 -7 29 -21 85 -32 124 -20 71 -20 71 0 110
31 62 35 105 22 242 -11 114 -11 131 4 167 26 62 31 149 12 240 -30 144 -90
232 -193 277 -44 19 -160 31 -213 22z m198 -105 c118 -25 191 -158 179 -322
-7 -91 -26 -123 -107 -185 l-44 -34 56 7 c52 7 55 6 61 -17 4 -12 7 -71 7
-129 0 -101 -1 -108 -28 -145 -42 -57 -108 -114 -184 -159 -37 -21 -66 -41
-63 -43 9 -9 108 32 166 69 46 30 64 37 70 28 4 -7 24 -72 44 -143 37 -133 67
-187 140 -256 14 -13 25 -27 25 -32 0 -5 -26 -6 -57 -3 -32 4 -113 9 -180 12
-120 6 -122 5 -188 -26 -37 -17 -69 -31 -71 -31 -2 0 -4 9 -4 19 0 21 -38 62
-111 122 -24 20 -61 61 -82 91 -34 49 -36 58 -26 85 6 20 19 33 35 37 29 8 31
30 4 49 -19 13 -20 24 -17 232 3 215 4 218 27 237 26 21 27 29 10 235 -13 169
-1 234 53 274 48 35 187 49 285 28z m359 -1469 c110 -15 355 -40 397 -40 111
0 250 -69 285 -142 12 -24 33 -59 47 -78 24 -33 25 -40 19 -108 -5 -68 -9 -76
-41 -104 -19 -17 -42 -43 -51 -59 -11 -18 -31 -33 -53 -39 -58 -17 -486 -42
-625 -37 -104 4 -146 10 -211 31 -44 14 -88 34 -96 43 -9 10 -25 47 -37 83
-18 57 -20 76 -12 160 8 89 36 185 64 218 20 24 95 63 138 71 61 12 98 12 176
1z m-1082 -287 c-8 -27 -15 -49 -15 -49 0 -1 -8 -4 -17 -6 -10 -3 -28 -25 -40
-49 -19 -39 -21 -50 -12 -85 16 -58 48 -115 76 -137 34 -27 47 -65 29 -86 -14
-17 -46 -89 -96 -224 -33 -86 -33 -154 0 -186 18 -17 43 -61 60 -107 l11 -27
-28 18 c-16 10 -38 24 -49 32 -35 22 -89 113 -109 183 -24 85 -31 266 -15 382
25 187 99 335 185 374 17 7 31 13 32 14 1 0 -4 -21 -12 -47z m377 -161 c12
-32 40 -76 64 -102 l44 -47 -26 -11 c-32 -15 -34 -15 -34 4 0 9 -23 42 -52 73
-74 81 -88 107 -88 170 0 46 4 59 28 84 l27 28 8 -71 c4 -40 17 -97 29 -128z
m1029 -217 c42 -8 117 -17 167 -21 71 -5 92 -10 92 -21 0 -15 -60 -14 -195 3
-62 8 -164 38 -152 46 7 4 12 8 12 8 0 0 34 -7 76 -15z m-41 -150 c128 -13
333 -62 422 -99 40 -17 70 -52 113 -133 27 -50 27 -53 15 -124 -10 -60 -20
-84 -59 -138 l-47 -66 -75 -11 c-104 -17 -174 -17 -265 2 -82 17 -116 16 -275
-10 -156 -25 -237 -4 -334 86 -55 51 -60 60 -80 137 -21 77 -21 86 -8 164 14
80 16 84 72 140 48 49 65 60 107 67 60 11 235 5 414 -15z m-271 -675 c49 -11
133 -21 187 -23 120 -5 205 -33 268 -88 41 -36 44 -44 58 -119 13 -69 13 -91
1 -153 -13 -68 -17 -75 -73 -132 l-60 -60 -253 -3 c-190 -2 -279 1 -359 13
-195 28 -197 29 -267 99 -61 61 -63 66 -78 141 -13 70 -13 85 3 157 16 75 20
81 59 108 110 76 125 80 282 80 106 0 166 -5 232 -20z"/>
</g>
</svg>
